<?xml version="1.0" encoding="UTF-8" standalone="no"?>
<svg
   xmlns:dc="http://purl.org/dc/elements/1.1/"
   xmlns:cc="http://creativecommons.org/ns#"
   xmlns:rdf="http://www.w3.org/1999/02/22-rdf-syntax-ns#"
   xmlns:svg="http://www.w3.org/2000/svg"
   xmlns="http://www.w3.org/2000/svg"
   xmlns:sodipodi="http://sodipodi.sourceforge.net/DTD/sodipodi-0.dtd"
   xmlns:inkscape="http://www.inkscape.org/namespaces/inkscape"
   version="1.1"
   id="svg2"
   width="49.599998"
   height="75.519997"
   viewBox="0 0 49.599998 75.519997"
   sodipodi:docname="firma_limpia.svg"
   inkscape:version="1.0.2 (e86c870879, 2021-01-15)">
  <metadata
     id="metadata8">
    <rdf:RDF>
      <cc:Work
         rdf:about="">
        <dc:format>image/svg+xml</dc:format>
        <dc:type
           rdf:resource="http://purl.org/dc/dcmitype/StillImage" />
        <dc:title></dc:title>
      </cc:Work>
    </rdf:RDF>
  </metadata>
  <defs
     id="defs6" />
  <sodipodi:namedview
     pagecolor="#ffffff"
     bordercolor="#666666"
     borderopacity="1"
     objecttolerance="10"
     gridtolerance="10"
     guidetolerance="10"
     inkscape:pageopacity="0"
     inkscape:pageshadow="2"
     inkscape:window-width="1368"
     inkscape:window-height="706"
     id="namedview4"
     showgrid="false"
     inkscape:zoom="7.6006359"
     inkscape:cx="-3.0924037"
     inkscape:cy="11.446411"
     inkscape:window-x="0"
     inkscape:window-y="0"
     inkscape:window-maximized="1"
     inkscape:current-layer="g10" />
  <g
     inkscape:groupmode="layer"
     inkscape:label="Image"
     id="g10">
    <path
       style="fill:#24387f;fill-opacity:1;stroke-width:0.32"
       d="M 2.730836,75.095171 C 2.04621,74.575469 2.037826,74.191507 2.658226,71.769859 3.131969,69.92066 7.7824121,57.019434 8.8543471,54.580628 c 0.154715,-0.352 0.743193,-1.72 1.3077289,-3.04 0.564536,-1.32 1.949453,-4.51927 3.077595,-7.109491 2.35457,-5.406108 2.2748,-4.940783 1.316686,-7.680652 -1.467649,-4.196963 -3.535918,-6.329856 -6.1380699,-6.329856 -1.473236,0 -1.608479,0.08098 -3.517688,2.106285 -1.6876371,1.790256 -2.1250451,2.090336 -2.9152891,2 -2.65125301,-0.303079 -2.48145101,-4.836263 0.537049,-14.337592 0.80036,-2.519292 1.200151,-4.300256 1.084017,-4.82901 -0.12048,-0.548543 -0.01306,-0.979567 0.311213,-1.248686 0.272362,-0.22604 1.0580761,-2.156985 1.7460321,-4.2909888 1.881884,-5.8375086 3.649018,-9.80000643 4.3704559,-9.80000643 0.667513,0 0.563226,0.92527132 -0.3834269,3.40190103 -0.462103,1.2089542 -0.966893,2.7383829 -1.121754,3.3987304 -0.154861,0.6603475 -1.000123,3.014504 -1.87836,5.2314588 -0.878237,2.216954 -1.973033,5.42067 -2.4328791,7.119368 -0.459847,1.698697 -1.173164,4.100075 -1.585148,5.336395 -0.855115,2.566103 -1.284667,5.956356 -0.968331,7.642574 0.252239,1.344547 0.437738,1.398297 1.482481,0.429571 0.7765,-0.72 0.7765,-0.72 -0.25966,-0.820275 C 1.63945,31.639622 1.41848,30.58837 2.570839,30.256242 c 3.4787911,-1.00264 4.1221391,-1.712697 4.5585791,-5.03126 0.109632,-0.833606 0.779013,-3.425606 1.487515,-5.76 0.708503,-2.334394 1.4837879,-4.964352 1.7228559,-5.844352 1.942696,-7.1509691 4.584326,-12.95999923 5.893499,-12.95999923 1.121013,0 1.140595,2.23986723 0.03917,4.47999983 -0.253787,0.5161648 -2.109313,6.4208034 -3.167628,10.0799994 -0.724236,2.504097 -3.1959849,9.060805 -4.0069019,10.628945 -0.642794,1.243027 -0.649612,1.371054 -0.07302,1.371054 1.7289309,0 3.5573769,-2.643194 5.0913249,-7.359999 1.490974,-4.584663 6.698921,-16.111415 8.287057,-18.3417463 0.620394,-0.87126273 0.704604,-0.90137563 1.081038,-0.3865713 0.267927,0.3664117 0.307628,0.7387375 0.115514,1.0833061 -0.720836,1.2928659 -4.149002,8.7119545 -4.149002,8.9790915 0,0.346078 -1.679742,4.676496 -2.590268,6.677775 -2.359126,5.185214 -2.73999,8.205041 -0.709782,5.627774 2.424853,-3.078252 3.928056,-6.214746 6.498617,-13.5596288 2.418032,-6.9090639 3.422815,-8.6719066 4.670011,-8.1933126 0.694095,0.2663495 0.416943,2.6072756 -0.688745,5.8173705 -1.187396,3.4473159 -0.943543,4.5506639 1.232206,5.5752919 1.717125,0.808649 1.552978,1.496934 -1.176663,4.933862 -1.143939,1.440349 -1.028888,1.587429 0.604624,0.77295 5.520355,-2.752485 18.164176,-7.552587 20.678431,-7.850363 2.774899,-0.328646 1.530518,0.755269 -2.118432,1.845256 -0.704,0.210293 -1.423999,0.488818 -1.6,0.618945 -0.176,0.130126 -0.896,0.418342 -1.6,0.640478 -2.103635,0.663772 -12.013328,4.734649 -12.833187,5.271841 -0.418027,0.273901 -0.827963,0.509477 -0.91097,0.5235 -2.962118,0.500433 -6.575842,3.602226 -6.575842,5.644289 0,0.32554 -0.12991,0.728691 -0.288688,0.895891 -0.158779,0.1672 -0.509559,0.952 -0.779512,1.744 -1.610103,4.723792 -2.5186,7.125373 -3.428231,9.0624 -0.946724,2.016016 -1.012676,2.369769 -0.86507,4.64 0.658781,10.132297 -4.021771,24.81068 -9.9687629,31.262405 -2.182594,2.367833 -3.1418951,2.805891 -4.2697351,1.949737 z M 6.0515401,71.979898 C 11.247186,65.887796 15.687948,53.311847 15.585399,44.980629 l -0.02363,-1.92 -0.855466,1.782153 c -1.882488,3.921706 -4.017227,8.995545 -6.1165719,14.537846 -2.639389,6.968025 -3.874902,10.45064 -4.152739,11.705577 -0.1784591,0.806064 -0.4167571,1.706064 -0.5295491,2 -0.429084,1.118173 0.7782341,0.495226 2.1440991,-1.106307 z M 16.919386,35.807282 c 0.598439,-1.118195 4.436638,-11.58813 4.298691,-11.726077 -0.06922,-0.06922 -0.455208,0.104833 -0.857751,0.386785 -0.402542,0.281951 -1.239854,0.517219 -1.860693,0.522816 -0.620839,0.0056 -1.408321,0.221598 -1.74996,0.48 -0.341638,0.258403 -0.79066,0.469823 -0.997825,0.469823 -0.62188,0 -4.579134,2.309303 -4.758577,2.776925 -0.09643,0.251284 0.705671,1.293357 1.905521,2.47562 1.139624,1.122921 2.072043,2.267589 2.072043,2.543708 0,0.662717 1.009566,2.763747 1.328009,2.763747 0.137211,0 0.416454,-0.312007 0.620542,-0.693347 z m -6.65957,-15.626653 c 0.615904,-1.847999 1.574025,-4.871999 2.12916,-6.719999 0.555135,-1.848 1.431721,-4.6474322 1.947969,-6.2209611 0.516249,-1.5735289 0.882372,-2.9172232 0.813607,-2.9859877 -0.312061,-0.3120611 -1.73134,3.7027726 -3.707229,10.4869488 -0.724782,2.488523 -1.163212,3.863937 -1.5810629,4.96 -0.509492,1.336443 -1.294525,3.852423 -1.293007,4.143999 0.0043,0.834535 0.677595,-0.624617 1.6905629,-3.664 z m 11.365544,0.867554 c 0.925426,-0.954798 2.540333,-5.511677 2.112472,-5.960887 -0.183201,-0.192341 -3.646997,6.290746 -3.646997,6.825978 0,0.44427 0.585201,0.114362 1.534525,-0.865091 z m 5.49235,-5.896294 c 0.01139,-0.337385 -0.927847,-1.051259 -1.383131,-1.051259 -0.180314,0 -1.163744,3.253814 -1.163744,3.850405 0,0.500902 2.529313,-2.278942 2.546875,-2.799146 z M 25.063585,7.912754 c 0.47239,-1.3679321 0.788567,-2.5574722 0.702618,-2.643422 -0.20836,-0.2083603 -1.702406,3.5753884 -1.970858,4.991298 -0.312244,1.64689 0.244926,0.61541 1.26824,-2.347876 z"
       id="path120" />
  </g>
</svg>
