<?xml version="1.0" encoding="UTF-8" standalone="no"?>
<svg
   xmlns:dc="http://purl.org/dc/elements/1.1/"
   xmlns:cc="http://creativecommons.org/ns#"
   xmlns:rdf="http://www.w3.org/1999/02/22-rdf-syntax-ns#"
   xmlns:svg="http://www.w3.org/2000/svg"
   xmlns="http://www.w3.org/2000/svg"
   xmlns:xlink="http://www.w3.org/1999/xlink"
   xmlns:sodipodi="http://sodipodi.sourceforge.net/DTD/sodipodi-0.dtd"
   xmlns:inkscape="http://www.inkscape.org/namespaces/inkscape"
   width="144px"
   height="144px"
   version="1.1"
   id="svg1586"
   inkscape:version="1.0.2 (e86c870879, 2021-01-15)"
   sodipodi:docname="logo_universidad_medica.svg"
   inkscape:export-filename="/media/Datos/workspace/workspaceAndroid/PSIGAME/app/src/main/assets/img/logo_universidad_medica.png"
   inkscape:export-xdpi="96"
   inkscape:export-ydpi="96">
  <defs
     id="defs1580" />
  <sodipodi:namedview
     id="base"
     pagecolor="#ffffff"
     bordercolor="#666666"
     borderopacity="1.0"
     inkscape:pageopacity="0.0"
     inkscape:pageshadow="2"
     inkscape:zoom="11.2"
     inkscape:cx="107.40589"
     inkscape:cy="98.493012"
     inkscape:document-units="mm"
     inkscape:current-layer="layer1"
     inkscape:document-rotation="0"
     showgrid="true"
     showguides="true"
     inkscape:window-width="1368"
     inkscape:window-height="706"
     inkscape:window-x="0"
     inkscape:window-y="0"
     inkscape:window-maximized="1">
    <inkscape:grid
       type="xygrid"
       id="grid2149" />
  </sodipodi:namedview>
  <metadata
     id="metadata1583">
    <rdf:RDF>
      <cc:Work
         rdf:about="">
        <dc:format>image/svg+xml</dc:format>
        <dc:type
           rdf:resource="http://purl.org/dc/dcmitype/StillImage" />
        <dc:title />
      </cc:Work>
    </rdf:RDF>
  </metadata>
  <g
     inkscape:label="Capa 1"
     inkscape:groupmode="layer"
     id="layer1">
    <g
       id="g269"
       transform="matrix(0.16155845,0,0,0.16155845,11.712299,-5.8934286)">
      <path
         d="m 332.47105,666.13862 c -4.4,0.5 -10,1.5 -12.5,2.5 -2.5,0.9 -7,2.1 -10,2.6 -3,0.5 -7.3,1.8 -9.5,2.9 -2.1,1.1 -5.3,2 -7,2 -1.6,0 -4.6,0.4 -6.5,1 -8.6,2.4 -21.6,4.1 -34.5,4.6 -13.9,0.5 -14,0.5 -16.5,3.4 -1.5,1.7 -3,5.3 -3.8,9.2 -0.7,3.5 -1.7,8.1 -2.2,10.3 -0.7,3.2 -0.5,4.3 0.9,5.8 1.6,1.7 3.2,1.7 25.7,0.7 13.2,-0.6 28,-1.7 33,-2.5 5.4,-1 19.6,-1.8 36.1,-2.2 l 27.3,-0.6 7.1,3.3 c 6.4,2.9 7.8,3.2 13.8,2.7 4.7,-0.3 8,-1.3 11.5,-3.2 l 4.8,-2.8 28.7,0.6 c 18.5,0.4 31.6,1.2 37.1,2.2 10.7,1.9 54,3.8 57.4,2.6 3,-1.2 4.1,-2.8 2.9,-4.4 -1.4,-2 -3.1,-7.8 -4.4,-15 -1.5,-9.3 -2.1,-9.6 -19.4,-10.1 -17.8,-0.5 -33.6,-3.5 -67.5,-13.1 -16.1,-4.5 -39.5,-4.2 -44.6,0.6 -1.5,1.4 -4,2.3 -7.1,2.6 -4,0.4 -5.5,0 -8.8,-2.3 -5.8,-3.9 -15.3,-4.9 -32,-3.4 z"
         id="path130"
         style="fill:#000000;stroke:none;stroke-width:0.1" />
      <path
         d="m 341.17105,446.13862 c -1.9,0.1 -9.7,8.4 -15.1,16.3 -7.6,10.9 -9.6,14.8 -11,21.5 -1.3,6.4 -1.5,24.8 -0.2,28.8 0.5,1.6 1.9,6.2 3.1,10.2 1.5,4.9 2.9,7.8 4.4,8.8 5.41891,6.41166 11.399,12.2993 16.8,15.9 1.6,1.1 4.8,3.5 7.1,5.2 9.66315,5.61008 20.59995,11.95775 30.7,15.4 70.46888,37.69334 27.73326,58.49408 -3.80765,74.8316 1.8,1.2 1.20765,-0.9316 -0.89235,0.9684 -1.8,1.5 -3,1.7 -5.5,1.1 -3.9,-0.8 -10.8,-3.2 -16,-5.4 -26.02799,-5.15735 -52.83528,4.811 -73.9,4.1 -16,-0.6 -16.7,-0.6 -18.5,1.4 -1,1.2 -3.8,3.2 -6.1,4.5 -7.5,4.5 -9.6,10.8 -4.6,14.1 4.2,2.8 29.9,2.6 40.8,-0.3 4.4,-1.2 11,-2.5 14.7,-2.8 3.7,-0.4 9.8,-1.7 13.5,-2.9 5.7,-1.9 9,-2.2 21,-2.2 10,0 14.6,0.4 15.5,1.2 3.24961,1.93522 7.01678,3.34003 9.9,4.8 6.8,3.9 11.9,4.7 14.6,2.3 1,-0.9 4.9,-3.1 8.7,-4.8 6.8,-3.2 7.1,-3.3 22,-3.3 12,-0.1 15.9,0.2 18.8,1.5 2.1,1 7.5,2.2 12,2.8 4.6,0.6 11.7,2.1 15.8,3.3 6.2,1.8 10.2,2.1 23.5,2.2 17.7,0 19.9,-0.6 21,-5.5 0.6,-2.5 0.1,-3.6 -2.6,-6.5 -4.8,-5.1 -13.9,-10.4 -18,-10.5 -1.9,0 -7.8,0.2 -13.2,0.6 -10.3,0.7 -22.7,-0.7 -28.3,-3.2 -1.7,-0.7 -5.6,-1.6 -8.7,-2 -3.1,-0.4 -6.5,-1.2 -7.4,-2 -1.6,-1.1 -1.3,-1.7 3.3,-6.1 2.8,-2.7 7,-8.2 9.4,-12.3 4.2,-7.1 4.4,-8 4.8,-16.7 0.4,-7.6 0.1,-9.9 -1.5,-13.5 -1.1,-2.4 -2.6,-6.1 -3.3,-8.3 -0.7,-2.2 -1.6,-4.2 -1.9,-4.5 -0.3,-0.3 -1.8,-2.3 -3.2,-4.5 -4.5,-6.9 -12,-14.5 -21.4,-21.6 -4.9,-3.7 -46.68707,-29.7626 -52.87678,-42.14202 m 24.75884,-117.6045 c 0,-1.8 -0.18206,0.84652 2.91794,2.94652 5.5,3.9 9.7,9.2 11.1,14 0.8,2.6 2.1,5.9 2.9,7.5 1.2,2.3 1.6,8.9 1.9,33.1 0.4,27.2 0.6,30.4 2.2,32.2 1.8,1.9 1.8,1.9 7.3,-1.5 3,-2 7.1,-5.4 9.1,-7.7 2,-2.3 5.1,-5.5 6.8,-7.2 5.9,-5.7 7.4,-9.2 12.5,-28.4 3.9,-15 1.9,-28.4 -6.9,-45.9 -2.9,-5.8 -5.6,-9.3 -12.8,-16.2 -5.1,-4.8 -11.7,-10.2 -14.8,-11.9 -3,-1.8 -6.8,-4.5 -8.3,-6.2 -26.29736,-14.2642 -48.51738,-15.53489 -67.8,-23.4 -1.6,-0.7 -6.6,-2.5 -11,-4.1 -15.5,-5.5 -24.3,-11.2 -30.1,-19.5 -2.3,-3.4 -2.5,-4.1 -1.4,-7.3 1.4,-4.3 6.9,-7.3 16.7,-8.8 8.2,-1.3 19.7,-6.7 23.5,-11.1 2.9,-3.4 3.7,-9.2 1.9,-13.9 -1.4,-3.8 -12.5,-9.8 -20.2,-11 -14.7,-2.2 -26.9,2.7 -36.4,14.9 -7.7,9.9 -8.8,12.5 -9.3,23 -0.7,15.5 0.1,18.9 6.9,29.1 3.5,5.3 7.6,10.1 10,11.7 2.2,1.6 4.3,3.3 4.7,4 2.1,3.3 33.2,19.2 43.2,22 1.4,0.4 6.1,2.4 10.5,4.5 4.4,2.1 9.5,4.4 11.3,5.1"
         id="path54"
         style="fill:#000000;stroke:none;stroke-width:0.1"
         sodipodi:nodetypes="ccccccccccccccccccccsccccccccccccccscccccssccccccccccsccccccccccccccccccccsc" />
    </g>
    <ellipse
       style="fill:none;stroke:#000000;stroke-width:1.65428;stroke-linecap:round;stroke-linejoin:round;stroke-opacity:1"
       id="path2511"
       ry="67.450417"
       rx="52.412151"
       cy="71.956207"
       cx="71.853706" />
    <text
       xml:space="preserve"
       style="font-style:normal;font-weight:normal;font-size:40px;line-height:1.25;font-family:sans-serif;letter-spacing:0.86px;fill:#000000;fill-opacity:1;stroke:none"
       id="text2539"
       transform="translate(0,2)"><textPath
         xlink:href="#path2541"
         id="textPath2543"><tspan
           id="tspan2537"
           style="font-style:normal;font-variant:normal;font-weight:bold;font-stretch:normal;font-size:8px;font-family:FreeSerif;-inkscape-font-specification:'FreeSerif Bold'">    MATANZAS</tspan></textPath></text>
    <path
       style="fill:none;stroke:#000000;stroke-width:1px;stroke-linecap:butt;stroke-linejoin:miter;stroke-opacity:0"
       d="m 41,117 c 0,0 14,15 29,15 20,0 33,-15 33,-15"
       id="path2541"
       sodipodi:nodetypes="csc" />
    <text
       xml:space="preserve"
       style="font-style:normal;font-weight:normal;font-size:40px;line-height:1.25;font-family:sans-serif;letter-spacing:0.86px;fill:#000000;fill-opacity:1;stroke:none"
       id="text2539-1"><textPath
         xlink:href="#path2576"
         id="textPath840"><tspan
           id="tspan2537-2"
           style="font-style:normal;font-variant:normal;font-weight:bold;font-stretch:normal;font-size:8px;font-family:FreeSerif;-inkscape-font-specification:'FreeSerif Bold'">    UNIVERSIDAD DE CIENCIAS MÉDICAS</tspan></textPath></text>
    <path
       style="fill:none;stroke:#0000ff;stroke-width:0.913517px;stroke-linecap:butt;stroke-linejoin:miter;stroke-opacity:0"
       d="m 32.810651,91.395286 c 0,0 -3.654069,-12.789244 -3.307364,-22.837933 -0.346705,-26.492 18.837157,-52.983999 41.675088,-52.983999 23.751449,0 42.935305,23.751447 43.281155,52.983999 0.56766,9.135173 -3.0864,22.837933 -3.0864,22.837933"
       id="path2576"
       sodipodi:nodetypes="ccccc" />
    <path
       d="m 161.86909,65.608935 c -0.0646,-0.113091 0.47305,-1.981715 0.48924,-2.918754 0.0162,-1.32478 -0.0323,-1.809455 -0.25849,-2.229507 -0.14541,-0.274649 -0.32312,-0.516987 -0.38774,-0.516987 -0.30697,0.01616 -1.56712,1.357091 -2.43954,2.633403 -1.22784,1.760987 -1.55096,2.391065 -1.77714,3.473506 -0.21003,1.033974 -0.24234,4.00665 -0.0323,4.652884 0.0808,0.258493 0.30696,1.001662 0.50083,1.647896 0.24234,0.791636 0.46852,1.260156 0.71086,1.421714 0.21002,0.129247 0.50083,0.46852 0.66239,0.759325 0.25849,0.484675 0.85626,1.017818 2.05179,1.809455 0.25849,0.177714 0.77548,0.565454 1.14707,0.840104 0.80779,0.630078 3.74815,2.116415 4.45901,2.245662 0.27465,0.06462 0.50083,0.161558 0.50083,0.242338 0,0.08078 0.37158,0.290805 0.80779,0.484675 0.92088,0.38774 1.00166,0.549299 0.35543,0.678546 -0.61392,0.129246 -1.59943,-0.113091 -1.98717,-0.46852 -0.17771,-0.161558 -0.51699,-0.323117 -0.75932,-0.339273 -0.6947,-0.09694 -1.43787,-0.371584 -1.6479,-0.630078 -0.11309,-0.113091 -0.38774,-0.226182 -0.63008,-0.226182 -0.24234,0 -0.56545,-0.09693 -0.74317,-0.226181 -0.17771,-0.113091 -0.74317,-0.371585 -1.26015,-0.565455 -0.79164,-0.290805 -1.05013,-0.323117 -1.56712,-0.177714 -0.50083,0.129247 -0.66239,0.274649 -0.79164,0.694701 -0.0969,0.306961 -0.1454,2.455689 -0.1454,5.169871 l 0.0323,4.652883 0.48468,0.274649 c 0.35542,0.177715 0.95319,0.258494 1.97101,0.27465 1.35709,0.01615 1.56712,0.08078 2.66571,0.613922 0.66239,0.339272 1.42172,0.759324 1.69637,0.96935 0.2908,0.193871 0.64623,0.436208 0.80779,0.549299 0.29081,0.19387 0.29081,0.210026 -0.0485,0.516987 -0.2908,0.242338 -0.48468,0.27465 -0.88857,0.177714 -0.63008,-0.129246 -1.74483,-0.516987 -2.58494,-0.872415 -1.08244,-0.46852 -7.09241,-0.27465 -7.39937,0.226182 -0.22619,0.371584 -1.92255,0.533143 -4.5398,0.436207 -2.58493,-0.09694 -2.69802,-0.09694 -2.98883,0.226182 -0.16156,0.19387 -0.61392,0.516987 -0.9855,0.727013 -1.21169,0.727013 -1.55096,1.744832 -0.74317,2.277974 0.67854,0.452364 4.8306,0.420052 6.59158,-0.04847 0.71086,-0.19387 1.77715,-0.403896 2.37491,-0.452364 0.59777,-0.06462 1.58327,-0.274649 2.18104,-0.468519 0.92088,-0.306961 1.45403,-0.355429 3.39273,-0.355429 1.61558,0 2.35875,0.06462 2.50415,0.19387 0.0969,0.113091 0.27465,0.210026 0.38774,0.210026 0.1131,0 0.64624,0.258494 1.21169,0.565455 1.0986,0.630078 1.92255,0.759325 2.35876,0.371584 0.16155,-0.145402 0.79163,-0.500831 1.40555,-0.77548 1.0986,-0.516987 1.14707,-0.533143 3.55429,-0.533143 1.9387,-0.01616 2.56878,0.03231 3.0373,0.242338 0.33927,0.161558 1.21169,0.355428 1.9387,0.452363 0.74317,0.09694 1.89023,0.339273 2.55262,0.533143 1.00167,0.290805 1.6479,0.339273 3.79663,0.355429 2.85958,0 3.21501,-0.09694 3.39273,-0.888572 0.0969,-0.403896 0.0162,-0.58161 -0.42006,-1.05013 -0.77548,-0.823948 -2.24566,-1.680208 -2.90805,-1.696363 -0.30696,0 -1.26015,0.03231 -2.13257,0.09694 -1.66405,0.113091 -3.66738,-0.113091 -4.5721,-0.516987 -0.27465,-0.113091 -0.90473,-0.258494 -1.40556,-0.323117 -0.50083,-0.06462 -1.05013,-0.19387 -1.19554,-0.323117 -0.25849,-0.177714 -0.21002,-0.27465 0.53315,-0.985507 0.45236,-0.436208 1.13091,-1.324779 1.51865,-1.987169 0.67854,-1.147065 0.71085,-1.292467 0.77548,-2.698026 0.0646,-1.227844 0.0162,-1.599428 -0.24234,-2.181039 -0.17771,-0.38774 -0.42005,-0.985506 -0.53314,-1.340935 -0.11309,-0.355429 -0.2585,-0.678545 -0.30696,-0.727013 -0.0485,-0.04847 -0.29081,-0.371584 -0.51699,-0.727013 -0.72701,-1.114753 -1.9387,-2.342598 -3.45735,-3.489663 -0.79164,-0.597766 -1.63174,-1.244 -1.82561,-1.43787 -0.64624,-0.58161 -2.24567,-1.615584 -2.50416,-1.615584 -0.66329,-0.663471 -2.82748,-0.19967 -3.22453,-0.905664 m 1,-1 c 0,-0.355428 0.78666,-0.420778 1.19056,0.01543 0.77178,0.524178 1.6256,1.112346 2.35875,1.502493 0.27465,0.355429 0.4039,0.403897 0.8401,0.306962 0.50084,-0.113091 0.50084,-0.129247 0.4039,-0.872416 -0.25849,-1.793299 -0.35543,-4.895221 -0.25849,-8.497975 0.0969,-3.909714 0.11309,-5.331428 0.0323,-7.464 C 170.40391,55.613922 170.33931,55.371585 170,55 c -0.11932,-0.240347 -0.76649,-1.688138 -1.13091,-2.391065 -0.12925,-0.04847 -0.24234,-0.242337 -0.24234,-0.420052 0,-0.19387 -0.16156,-0.403896 -0.40389,-0.516987 -0.22619,-0.09694 -0.4039,-0.323117 -0.4039,-0.484675 m 0.0501,-0.578286 c 0,-0.290805 -0.0178,0.287481 0.48301,0.626756 0.88857,0.630078 1.56712,1.486338 1.7933,2.261819 0.12925,0.420052 0.33927,0.953195 0.46852,1.211688 0.19387,0.371585 0.25849,1.43787 0.30696,5.347585 0.0646,4.39439 0.0969,4.911377 0.35543,5.202182 0.29081,0.306961 0.29081,0.306961 1.17938,-0.242338 0.48467,-0.323117 1.14706,-0.872415 1.47018,-1.244 0.32312,-0.371584 0.82395,-0.888571 1.0986,-1.163221 0.95319,-0.920883 1.19553,-1.486337 2.01948,-4.58826 0.63008,-2.423376 0.30696,-4.58826 -1.11476,-7.415532 -0.46852,-0.937039 -0.90472,-1.502494 -2.06794,-2.617247 -0.82395,-0.775481 -1.89024,-1.647897 -2.39107,-1.922546 -0.48467,-0.290805 -1.0986,-0.727013 -1.34093,-1.001662 -0.24234,-0.258494 -0.69471,-0.549299 -0.98551,-0.646234 -0.61392,-0.19387 -0.53314,-0.46852 0.12925,-0.46852 0.64623,0 0.90472,-0.484675 1.01781,-1.857922 0.0646,-0.77548 0.22619,-1.389402 0.50084,-1.938701 0.30696,-0.581611 0.46851,-1.244 0.58161,-2.342598 0.17771,-1.534805 0.37158,-2.940364 0.58161,-4.071273 0.0969,-0.549298 0.0485,-0.662389 -0.42006,-1.098597 -0.45236,-0.420052 -0.64623,-0.484675 -1.26015,-0.452364 -0.93704,0.04847 -1.3894,-0.436208 -1.53481,-1.647896 -0.11309,-0.969351 -0.27465,-1.195532 -1.09859,-1.63174 -0.71086,-0.355429 -1.32478,-0.387741 -2.00333,-0.08078 l 1e-5,-5e-6 c -0.6947,0.306962 -0.98551,0.710858 -1.21169,1.71252 -0.11309,0.484675 -0.35543,1.098597 -0.53314,1.357091 -0.29081,0.403896 -0.38774,0.436208 -0.93704,0.355429 -1.27631,-0.210026 -2.10026,0.646233 -1.76099,1.809454 0.22619,0.759325 0.51699,2.908052 0.5493,4.071273 0.0485,1.066286 0.17772,1.51865 0.67855,2.261818 0.21002,0.306962 0.38774,0.759325 0.38774,1.001663 0,0.452364 -0.0162,0.452364 -1.03398,0.452364 -0.9855,0 -1.58327,-0.129247 -2.60109,-0.565455 -0.25849,-0.113091 -1.06628,-0.403896 -1.77714,-0.66239 -2.50416,-0.888571 -3.92587,-1.809454 -4.86291,-3.150389 -0.37158,-0.549299 -0.4039,-0.66239 -0.22618,-1.179377 0.22618,-0.694701 1.11475,-1.179377 2.69802,-1.421715 1.32478,-0.210025 3.18271,-1.082441 3.79663,-1.793298 0.46852,-0.549299 0.59777,-1.486338 0.30696,-2.245663 -0.22618,-0.613922 -2.01948,-1.583273 -3.26348,-1.777143 -2.37491,-0.355428 -4.34592,0.436208 -5.88073,2.407221 -1.244,1.599429 -1.42171,2.019481 -1.50249,3.715845 -0.11309,2.504156 0.0162,3.053454 1.11475,4.70135 0.56546,0.85626 1.22785,1.631741 1.61559,1.890234 0.35542,0.258494 0.6947,0.533143 0.75932,0.646234 0.33927,0.533143 5.36374,3.101922 6.97933,3.554286 0.22618,0.06462 0.9855,0.38774 1.69636,0.727013 0.71086,0.339273 1.53481,0.710857 1.82561,0.823948 0.6947,0.242338 1.08244,0.969351 0.82395,1.470182 m 0,0 c -0.12925,0.242338 -0.22618,2.164883 -0.30696,5.945351 -0.0485,3.085766 -0.14541,5.670702 -0.21003,5.751481 -0.0485,0.09694 -0.11309,1.05013 -0.12925,2.148727 -0.0162,1.163221 -0.0969,1.890234 -0.17771,1.760987 m 11.17984,20.744105 c 0,0.597767 -0.0646,1.114754 -0.1454,1.179377 -0.21002,0.129247 -0.25849,-0.274649 -0.21002,-1.583273 0.0808,-1.43787 0.35542,-1.130909 0.35542,0.403896 z"
       id="path54-3"
       style="fill:#000000;stroke:none;stroke-width:0.0161558"
       sodipodi:nodetypes="cccccccccccccscccccsccccccccccccccccccccccscscccccccccccccscccccssccccccccccccccscccccccccscccccccscccccccccsccccccssccccccccccccccscccccccccsc" />
  </g>
</svg>
